<?xml version="1.0" standalone="no"?>
<!DOCTYPE svg PUBLIC "-//W3C//DTD SVG 20010904//EN"
 "http://www.w3.org/TR/2001/REC-SVG-20010904/DTD/svg10.dtd">
<svg version="1.0" xmlns="http://www.w3.org/2000/svg"
 width="600.000000pt" height="600.000000pt" viewBox="0 0 600.000000 600.000000"
 preserveAspectRatio="xMidYMid meet">
<metadata>
Created by potrace 1.14, written by Peter Selinger 2001-2017
</metadata>
<g transform="translate(0.000000,600.000000) scale(0.100000,-0.100000)"
fill="#000000" stroke="none">
<path d="M19 5973 c-1 -16 0 -43 1 -62 1 -18 -2 -36 -7 -40 -6 -3 -7 -34 -3
-71 4 -36 3 -66 -2 -68 -4 -2 -8 -13 -8 -25 0 -18 2 -19 10 -7 8 12 10 10 10
-11 0 -14 -3 -28 -6 -32 -9 -8 -10 -326 -1 -320 9 5 10 -41 1 -50 -8 -8 -7
-151 1 -177 4 -12 1 -28 -7 -37 -10 -13 -10 -17 0 -20 6 -3 12 -17 12 -31 0
-21 -2 -24 -10 -12 -13 20 -12 5 1 -64 9 -43 9 -60 0 -69 -8 -8 -11 -626 -11
-2444 l0 -2433 3000 0 3000 0 0 3000 0 3000 -2195 0 c-1749 0 -2195 -3 -2196
-12 -1 -15 -10 -338 -9 -353 0 -5 2 -34 4 -63 3 -39 0 -55 -10 -59 -11 -4 -11
-8 1 -26 7 -12 12 -38 10 -57 -1 -19 -3 -42 -4 -51 -1 -9 -8 -16 -17 -16 -13
0 -15 24 -11 206 3 113 8 214 12 225 5 11 3 21 -5 26 -9 6 -9 12 0 30 9 16 9
25 1 33 -6 6 -11 18 -11 26 0 14 1 14 10 1 9 -13 10 -13 10 0 0 8 -5 32 -11
53 l-10 37 -774 0 -775 0 -1 -27z m768 -25 c-3 -8 -6 -5 -6 6 -1 11 2 17 5 13
3 -3 4 -12 1 -19z m1520 -55 c-3 -10 -5 -4 -5 12 0 17 2 24 5 18 2 -7 2 -21 0
-30z m-1930 5 c-3 -8 -6 -5 -6 6 -1 11 2 17 5 13 3 -3 4 -12 1 -19z m3670 0
c-3 -8 -6 -5 -6 6 -1 11 2 17 5 13 3 -3 4 -12 1 -19z m-1740 -75 c-3 -10 -5
-4 -5 12 0 17 2 24 5 18 2 -7 2 -21 0 -30z m1230 5 c-3 -8 -6 -5 -6 6 -1 11 2
17 5 13 3 -3 4 -12 1 -19z m718 -63 c3 -14 7 -35 10 -47 2 -14 -4 -34 -16 -48
l-19 -25 1 73 c2 71 14 95 24 47z m-5 -145 c0 -11 -4 -20 -10 -20 -5 0 -10 9
-10 20 0 11 5 20 10 20 6 0 10 -9 10 -20z m11 -47 c3 -40 3 -276 -1 -280 -7
-6 -29 170 -29 235 -1 40 3 52 14 52 8 0 15 -3 16 -7z m76 -45 c-3 -7 -5 -2
-5 12 0 14 2 19 5 13 2 -7 2 -19 0 -25z m20 0 c-3 -7 -5 -2 -5 12 0 14 2 19 5
13 2 -7 2 -19 0 -25z m-2990 0 c-3 -8 -6 -5 -6 6 -1 11 2 17 5 13 3 -3 4 -12
1 -19z m2970 -140 c-3 -7 -5 -2 -5 12 0 14 2 19 5 13 2 -7 2 -19 0 -25z m-80
-140 c-3 -8 -6 -5 -6 6 -1 11 2 17 5 13 3 -3 4 -12 1 -19z m1068 -445 c-4 -15
-7 -136 -7 -269 0 -132 -4 -247 -9 -255 -7 -11 -9 -8 -10 11 -1 14 -2 40 -3
58 -1 17 3 32 9 32 6 0 6 3 -1 8 -14 9 -13 124 1 135 7 4 6 10 -1 15 -12 7
-11 24 1 55 4 9 3 17 -1 17 -13 0 -12 124 1 132 6 5 6 8 -2 8 -8 0 -13 14 -12
38 0 30 2 33 9 17 8 -20 9 -20 9 1 1 21 11 37 19 29 2 -2 1 -17 -3 -32z
m-5088 5 c-3 -8 -6 -5 -6 6 -1 11 2 17 5 13 3 -3 4 -12 1 -19z m330 -580 c-3
-7 -5 -2 -5 12 0 14 2 19 5 13 2 -7 2 -19 0 -25z m4744 25 c0 -5 2 -34 5 -65
4 -38 2 -58 -5 -58 -6 0 -11 12 -11 28 0 15 -3 44 -6 65 -5 24 -3 37 5 37 6 0
11 -3 12 -7z m-5104 -105 c-3 -7 -5 -2 -5 12 0 14 2 19 5 13 2 -7 2 -19 0 -25z
m5109 -111 c1 -34 5 -70 9 -80 4 -10 3 -28 -3 -40 -7 -12 -11 -29 -10 -37 3
-37 -3 -80 -11 -80 -9 0 -12 287 -4 303 11 18 18 -8 19 -66z m-4749 -19 c-3
-8 -6 -5 -6 6 -1 11 2 17 5 13 3 -3 4 -12 1 -19z m-360 -80 c-3 -7 -5 -2 -5
12 0 14 2 19 5 13 2 -7 2 -19 0 -25z m5103 -180 c0 7 5 10 10 7 6 -3 10 -19
10 -36 0 -23 -4 -28 -20 -26 -28 5 -33 13 -26 44 6 21 9 24 17 12 6 -10 9 -11
9 -1z m-3993 -30 c-3 -7 -5 -2 -5 12 0 14 2 19 5 13 2 -7 2 -19 0 -25z m-1180
-85 c-3 -10 -5 -4 -5 12 0 17 2 24 5 18 2 -7 2 -21 0 -30z m393 -39 c0 -8 5
-12 10 -9 6 4 10 -6 9 -22 0 -15 -3 -22 -6 -15 -4 10 -8 10 -19 1 -12 -9 -14
-5 -14 25 0 20 5 36 10 36 6 0 10 -7 10 -16z m1510 -6 c0 -7 3 -24 6 -38 4
-18 3 -21 -4 -10 -17 27 -24 60 -13 60 6 0 11 -6 11 -12z m-1499 -75 c7 -57 6
-162 -2 -158 -5 4 -9 -7 -9 -24 0 -16 4 -32 9 -36 11 -6 9 -85 -3 -104 -16
-26 -25 12 -26 114 0 55 -1 107 -2 115 -5 53 3 100 17 100 8 0 15 -3 16 -7z
m1802 -47 c35 -14 40 -26 53 -111 2 -16 9 -49 15 -72 14 -51 3 -128 -13 -100
-8 14 -13 16 -24 6 -11 -9 -14 -7 -14 10 0 25 -18 28 -26 4 -3 -10 -10 -26
-15 -35 -5 -10 -9 -24 -9 -32 0 -24 -27 -26 -38 -3 -20 40 -32 163 -25 261 l6
98 28 -6 c15 -3 43 -12 62 -20z m-183 -66 c0 -5 -2 -10 -4 -10 -3 0 -8 5 -11
10 -3 6 -1 10 4 10 6 0 11 -4 11 -10z m1956 -96 c-22 -96 -64 -255 -75 -279
-73 -159 -145 -283 -181 -312 -12 -10 -18 -8 -32 8 -22 26 -23 55 -3 92 8 15
17 45 21 65 3 20 11 42 18 47 14 13 36 52 36 65 0 5 16 45 36 87 20 43 48 114
64 158 47 133 47 134 82 143 18 5 37 6 41 2 4 -4 1 -38 -7 -76z m181 44 c-3
-7 -5 -2 -5 12 0 14 2 19 5 13 2 -7 2 -19 0 -25z m-10 -75 c-3 -10 -5 -4 -5
12 0 17 2 24 5 18 2 -7 2 -21 0 -30z m360 -5 c-3 -7 -5 -2 -5 12 0 14 2 19 5
13 2 -7 2 -19 0 -25z m-3579 -93 c-3 -41 -1 -72 4 -69 4 3 7 -14 7 -38 -1 -24
-3 -35 -6 -25 -5 20 -19 22 -27 5 -3 -7 -3 14 0 47 4 33 7 72 9 88 4 59 5 67
11 67 4 0 4 -34 2 -75z m3372 40 c0 -8 -4 -15 -10 -15 -5 0 -10 7 -10 15 0 8
5 15 10 15 6 0 10 -7 10 -15z m717 -27 c-3 -8 -6 -5 -6 6 -1 11 2 17 5 13 3
-3 4 -12 1 -19z m-4625 -32 c7 5 8 -26 5 -92 -3 -55 -6 -101 -7 -104 0 -3 -5
2 -10 11 -6 10 -6 43 -2 82 5 36 5 64 0 61 -4 -3 -8 10 -7 28 0 18 3 27 6 20
2 -6 9 -9 15 -6z m4625 -98 c-3 -7 -5 -2 -5 12 0 14 2 19 5 13 2 -7 2 -19 0
-25z m-4089 -103 c-3 -36 -2 -65 2 -65 12 0 12 -208 0 -215 -6 -4 -11 9 -11
32 l-2 38 -8 -40 c-4 -24 -6 18 -3 100 2 77 4 157 4 178 -1 22 4 37 11 37 8 0
10 -19 7 -65z m-524 -56 c4 -22 3 -46 -1 -52 -4 -7 -8 -30 -8 -52 0 -22 -4
-41 -10 -43 -6 -1 -11 36 -12 93 -2 74 1 95 11 95 8 0 16 -17 20 -41z m2933
-69 c8 -21 16 -28 27 -24 9 3 16 3 16 0 0 -10 -51 -108 -54 -104 -8 8 -15 158
-8 158 4 0 13 -14 19 -30z m-2932 -139 c-19 -80 -24 -110 -25 -143 0 -21 3
-38 8 -38 4 0 5 21 3 46 -2 34 0 45 8 39 14 -8 13 -158 -1 -195 l-10 -25 -10
25 c-9 25 -13 108 -10 252 2 72 3 76 23 71 17 -5 20 -11 14 -32z m3270 9 c3
-5 -3 -20 -14 -32 -17 -17 -21 -19 -21 -6 0 38 21 61 35 38z m-2746 -102 c-11
-27 -14 -29 -20 -12 -4 10 -7 30 -7 44 l0 25 8 -25 c8 -25 8 -25 9 5 1 26 3
28 12 12 8 -13 7 -27 -2 -49z m11 -125 c0 -7 -4 -13 -10 -13 -5 0 -10 10 -11
23 -1 21 -1 21 -9 -3 -8 -24 -8 -24 -9 6 -1 17 2 34 6 38 8 7 32 -31 33 -51z
m-5 -211 c-3 -13 -9 -21 -13 -18 -4 2 -7 -18 -7 -44 0 -37 3 -46 13 -38 9 8
12 2 12 -24 0 -27 -4 -34 -20 -34 -19 0 -20 7 -20 122 0 147 8 180 27 109 7
-28 11 -60 8 -73z m2 -74 c-3 -7 -5 -2 -5 12 0 14 2 19 5 13 2 -7 2 -19 0 -25z
m4769 -259 c11 -18 14 -101 4 -118 -7 -11 -9 -12 -10 -3 0 7 -4 10 -10 7 -6
-4 -10 18 -10 59 0 62 9 81 26 55z m13 -315 c-1 -91 -6 -167 -10 -170 -5 -3
-9 16 -9 42 0 26 -3 45 -6 42 -9 -10 8 -188 18 -182 5 4 6 -19 2 -58 -4 -34
-7 -80 -6 -100 2 -59 2 -77 -4 -165 -4 -56 -2 -83 5 -83 12 0 15 -43 4 -54 -5
-4 -8 -15 -9 -24 -1 -10 -2 -30 -3 -46 0 -16 -4 -27 -7 -23 -8 8 -17 883 -10
914 4 13 11 21 16 18 12 -7 12 -3 4 19 -3 9 -10 14 -14 11 -5 -3 -6 4 -3 14 3
12 11 17 19 14 12 -4 14 -36 13 -169z m-2 -236 c-3 -7 -5 -2 -5 12 0 14 2 19
5 13 2 -7 2 -19 0 -25z"/>
<path d="M523 3455 c0 -22 2 -30 4 -17 2 12 2 30 0 40 -3 9 -5 -1 -4 -23z"/>
<path d="M521 3284 c0 -11 3 -14 6 -6 3 7 2 16 -1 19 -3 4 -6 -2 -5 -13z"/>
<path d="M1053 2865 c0 -22 2 -30 4 -17 2 12 2 30 0 40 -3 9 -5 -1 -4 -23z"/>
<path d="M521 2474 c0 -11 3 -14 6 -6 3 7 2 16 -1 19 -3 4 -6 -2 -5 -13z"/>
<path d="M1052 2320 c0 -14 2 -19 5 -12 2 6 2 18 0 25 -3 6 -5 1 -5 -13z"/>
<path d="M5833 1635 c0 -33 2 -45 4 -27 2 18 2 45 0 60 -2 15 -4 0 -4 -33z"/>
<path d="M5835 1309 c-4 -6 -5 -12 -2 -15 2 -3 7 2 10 11 7 17 1 20 -8 4z"/>
<path d="M5831 924 c0 -11 3 -14 6 -6 3 7 2 16 -1 19 -3 4 -6 -2 -5 -13z"/>
<path d="M1 5904 c0 -11 3 -14 6 -6 3 7 2 16 -1 19 -3 4 -6 -2 -5 -13z"/>
</g>
</svg>
